<svg xmlns="http://www.w3.org/2000/svg" viewBox="0 0 24 24" fill="currentColor">
<path d="M9.15 11.26H4.15C3.63894 11.2574 3.14957 11.0532 2.78819 10.6918C2.42681 10.3305 2.22263 9.84108 2.22 9.33002V4.33002C2.22263 3.81897 2.42681 3.32959 2.78819 2.96821C3.14957 2.60683 3.63894 2.40265 4.15 2.40002H9.15C9.66106 2.40265 10.1504 2.60683 10.5118 2.96821C10.8732 3.32959 11.0774 3.81897 11.08 4.33002V9.33002C11.0774 9.84108 10.8732 10.3305 10.5118 10.6918C10.1504 11.0532 9.66106 11.2574 9.15 11.26ZM4.15 3.90002C4.03676 3.90257 3.92886 3.94869 3.84876 4.02879C3.76867 4.10888 3.72255 4.21678 3.72 4.33002V9.33002C3.72 9.44407 3.7653 9.55344 3.84595 9.63408C3.92659 9.71472 4.03596 9.76002 4.15 9.76002H9.15C9.26404 9.76002 9.37342 9.71472 9.45406 9.63408C9.5347 9.55344 9.58 9.44407 9.58 9.33002V4.33002C9.58 4.21598 9.5347 4.10661 9.45406 4.02597C9.37342 3.94533 9.26404 3.90002 9.15 3.90002H4.15Z"/>
<path d="M19.85 11.26H14.85C14.339 11.2574 13.8496 11.0532 13.4882 10.6918C13.1268 10.3305 12.9226 9.84108 12.92 9.33002V4.33002C12.9226 3.81897 13.1268 3.32959 13.4882 2.96821C13.8496 2.60683 14.339 2.40265 14.85 2.40002H19.85C20.3611 2.40265 20.8504 2.60683 21.2118 2.96821C21.5732 3.32959 21.7774 3.81897 21.78 4.33002V9.33002C21.7774 9.84108 21.5732 10.3305 21.2118 10.6918C20.8504 11.0532 20.3611 11.2574 19.85 11.26ZM14.85 3.90002C14.736 3.90002 14.6266 3.94533 14.546 4.02597C14.4653 4.10661 14.42 4.21598 14.42 4.33002V9.33002C14.42 9.44407 14.4653 9.55344 14.546 9.63408C14.6266 9.71472 14.736 9.76002 14.85 9.76002H19.85C19.9641 9.76002 20.0734 9.71472 20.1541 9.63408C20.2347 9.55344 20.28 9.44407 20.28 9.33002V4.33002C20.28 4.21598 20.2347 4.10661 20.1541 4.02597C20.0734 3.94533 19.9641 3.90002 19.85 3.90002H14.85Z"/>
<path d="M9.15 21.6001H4.15C3.63894 21.5974 3.14957 21.3932 2.78819 21.0319C2.42681 20.6705 2.22263 20.1811 2.22 19.6701V14.6701C2.22263 14.159 2.42681 13.6696 2.78819 13.3082C3.14957 12.9469 3.63894 12.7427 4.15 12.7401H9.15C9.66106 12.7427 10.1504 12.9469 10.5118 13.3082C10.8732 13.6696 11.0774 14.159 11.08 14.6701V19.6701C11.0774 20.1811 10.8732 20.6705 10.5118 21.0319C10.1504 21.3932 9.66106 21.5974 9.15 21.6001ZM4.15 14.2401C4.03596 14.2401 3.92659 14.2854 3.84595 14.366C3.7653 14.4466 3.72 14.556 3.72 14.6701V19.6701C3.72255 19.7833 3.76867 19.8912 3.84876 19.9713C3.92886 20.0514 4.03676 20.0975 4.15 20.1001H9.15C9.26404 20.1001 9.37342 20.0547 9.45406 19.9741C9.5347 19.8935 9.58 19.7841 9.58 19.6701V14.6701C9.58 14.556 9.5347 14.4466 9.45406 14.366C9.37342 14.2854 9.26404 14.2401 9.15 14.2401H4.15Z"/>
<path d="M19.85 21.6001H14.85C14.339 21.5974 13.8496 21.3932 13.4882 21.0319C13.1268 20.6705 12.9226 20.1811 12.92 19.6701V14.6701C12.9226 14.159 13.1268 13.6696 13.4882 13.3082C13.8496 12.9469 14.339 12.7427 14.85 12.7401H19.85C20.3611 12.7427 20.8504 12.9469 21.2118 13.3082C21.5732 13.6696 21.7774 14.159 21.78 14.6701V19.6701C21.7774 20.1811 21.5732 20.6705 21.2118 21.0319C20.8504 21.3932 20.3611 21.5974 19.85 21.6001ZM14.85 14.2401C14.736 14.2401 14.6266 14.2854 14.546 14.366C14.4653 14.4466 14.42 14.556 14.42 14.6701V19.6701C14.42 19.7841 14.4653 19.8935 14.546 19.9741C14.6266 20.0547 14.736 20.1001 14.85 20.1001H19.85C19.9641 20.1001 20.0734 20.0547 20.1541 19.9741C20.2347 19.8935 20.28 19.7841 20.28 19.6701V14.6701C20.28 14.556 20.2347 14.4466 20.1541 14.366C20.0734 14.2854 19.9641 14.2401 19.85 14.2401H14.85Z"/>
</svg>