<svg width="18" height="18" viewBox="0 0 18 18" fill="none" xmlns="http://www.w3.org/2000/svg">
<circle cx="9" cy="9" r="9" fill="#8643E5"/>
<path d="M13.2078 8.21065C12.5183 7.60366 11.5986 7.457 10.7211 7.71475C10.7211 7.71475 9.69964 8.04865 9.70242 8.0451C9.70242 8.0451 8.40492 8.47779 8.40801 8.4802L7.29094 8.85375L7.20366 8.88275C6.55816 9.10448 5.84243 8.95134 5.43988 8.33983C5.29069 8.10899 5.20911 7.83279 5.2034 7.53927C5.1977 7.24575 5.26808 6.94536 5.40741 6.66859C5.52682 6.42788 5.69411 6.21108 5.89679 6.03437C6.09946 5.85766 6.33227 5.72561 6.57782 5.64809C6.82338 5.57058 7.07534 5.54959 7.31487 5.58671C7.55441 5.62382 7.77533 5.71808 7.96113 5.86243C8.33487 6.15427 8.47147 6.5524 8.51327 6.89365C8.55634 7.25874 8.89325 7.47039 9.25409 7.35212C9.56837 7.24893 9.79379 6.92204 9.76498 6.60237C9.59288 4.81067 7.56286 3.60265 5.85571 4.57268C3.63984 5.83125 3.37691 8.57482 4.90892 9.77113C5.58226 10.2969 6.45347 10.4229 7.28438 10.1802L7.57244 10.0851C7.57244 10.0851 8.30554 9.84033 8.30276 9.84388C8.30276 9.84388 9.60026 9.4112 9.59717 9.40879L10.7318 9.03182L10.8105 9.00751C11.4063 8.79843 12.0554 8.92236 12.4763 9.43393C12.8468 9.88902 12.9046 10.5856 12.6138 11.1872C12.0885 12.28 10.82 12.6439 10.0385 12.0337C9.67095 11.7466 9.53435 11.3485 9.49532 11.0037C9.48502 10.9172 9.4572 10.8362 9.41358 10.7658C9.36996 10.6954 9.31148 10.6371 9.24176 10.5944C9.17203 10.5518 9.09256 10.5257 9.00826 10.5179C8.92396 10.51 8.83664 10.5205 8.75172 10.5488C8.42295 10.6578 8.20402 10.9955 8.23965 11.3319C8.2968 11.8509 8.50792 12.5929 9.18744 13.1235C10.4847 14.1366 12.5424 13.6345 13.5611 11.967C14.3456 10.6822 14.1892 9.07417 13.2078 8.21065Z" fill="white"/>
</svg>
