<svg fill="currentColor" xmlns="http://www.w3.org/2000/svg" xmlns:xlink="http://www.w3.org/1999/xlink" version="1.1" id="Layer_1" x="0px" y="0px" viewBox="0 0 512 512" style="enable-background:new 0 0 512 512;" xml:space="preserve">
		<path d="M442.785,111.098H213.469V33.157C213.469,14.873,198.596,0,180.313,0c-8.857,0-17.184,3.449-23.446,9.711L37.725,128.854    c-6.261,6.262-9.711,14.589-9.711,23.445s3.448,17.183,9.711,23.446l119.143,119.141c6.263,6.262,14.589,9.711,23.445,9.711    c18.283,0,33.157-14.873,33.157-33.156v-77.941h229.316c22.718,0,41.201-18.482,41.201-41.201    C483.986,129.58,465.503,111.098,442.785,111.098z M442.785,173.101H203.27c-5.632,0-10.199,4.567-10.199,10.199v88.141    c0,7.035-5.724,12.758-12.758,12.758c-3.408,0-6.613-1.328-9.022-3.737L52.15,161.321c-2.41-2.41-3.737-5.614-3.737-9.022    c0-3.408,1.327-6.612,3.737-9.021L171.291,24.135c2.41-2.41,5.614-3.737,9.022-3.737c7.034,0,12.758,5.723,12.758,12.758v88.141    c0,5.632,4.567,10.199,10.199,10.199h239.515c11.471,0,20.802,9.332,20.802,20.802    C463.587,163.77,454.256,173.101,442.785,173.101z"/>
		<path d="M474.274,336.255L355.132,217.113c-6.263-6.262-14.589-9.711-23.445-9.711c-18.283,0-33.157,14.874-33.157,33.157v77.941    H69.215c-22.718,0-41.201,18.482-41.201,41.201c0,22.719,18.483,41.201,41.201,41.201h229.316v77.941    c0,18.283,14.873,33.157,33.157,33.157c8.857,0,17.184-3.449,23.446-9.711l119.141-119.143c6.261-6.262,9.711-14.589,9.711-23.445    C483.985,350.845,480.536,342.519,474.274,336.255z M459.85,368.724L340.71,487.865c-2.41,2.41-5.614,3.737-9.022,3.737    c-7.035,0-12.758-5.724-12.758-12.758v-88.141c0-5.632-4.567-10.199-10.199-10.199H69.215c-11.471,0-20.802-9.332-20.802-20.802    c0-11.471,9.331-20.802,20.802-20.802v0.001H308.73c5.632,0,10.199-4.567,10.199-10.199V240.56    c0-7.035,5.724-12.758,12.758-12.758c3.408,0,6.613,1.328,9.022,3.737L459.85,350.68c2.41,2.41,3.737,5.614,3.737,9.022    C463.587,363.11,462.261,366.315,459.85,368.724z"/>
</svg>