<svg width="14" height="14" viewBox="0 0 14 14" fill="none" xmlns="http://www.w3.org/2000/svg">
<path fill-rule="evenodd" clip-rule="evenodd" d="M0.530665 0C0.671406 0 0.806383 0.0567305 0.905902 0.157712C1.00542 0.258693 1.06133 0.395653 1.06133 0.538462V0.926154L2.36181 0.595897C3.9594 0.190586 5.64717 0.378523 7.12011 1.12574L7.19653 1.16451C8.41808 1.78442 9.81518 1.95006 11.1447 1.63262L13.3445 1.10708C13.427 1.08744 13.513 1.08814 13.5952 1.10914C13.6774 1.13013 13.7534 1.1708 13.817 1.22775C13.8805 1.28469 13.9296 1.35625 13.9603 1.43643C13.991 1.51662 14.0023 1.60309 13.9933 1.68862C13.73 4.15528 13.7312 6.64365 13.9968 9.11005C14.011 9.24079 13.9775 9.37226 13.9027 9.47965C13.8278 9.58705 13.7169 9.66295 13.5907 9.69303L11.3874 10.2193C9.81632 10.5945 8.16535 10.3989 6.72176 9.66646L6.64534 9.62769C5.39914 8.99537 3.97113 8.83621 2.61936 9.17897L1.06133 9.57385V13.4615C1.06133 13.6043 1.00542 13.7413 0.905902 13.8423C0.806383 13.9433 0.671406 14 0.530665 14C0.389924 14 0.254947 13.9433 0.155428 13.8423C0.0559091 13.7413 0 13.6043 0 13.4615V0.538462C0 0.46775 0.013726 0.39773 0.0403944 0.332401C0.0670629 0.267072 0.106151 0.207712 0.155428 0.157712C0.204705 0.107711 0.263205 0.0680481 0.327588 0.0409879C0.391972 0.0139277 0.460977 0 0.530665 0Z" fill="#6C757D"/>
</svg>
