<svg width="129" height="76" viewBox="0 0 129 76" fill="none" xmlns="http://www.w3.org/2000/svg">
<path fill-rule="evenodd" clip-rule="evenodd" d="M0 5C0 2.23858 2.23858 0 5 0H69C71.7614 0 74 2.23858 74 5C74 7.76142 71.7614 10 69 10H5C2.23858 10 0 7.76142 0 5Z" fill="white"/>
<path fill-rule="evenodd" clip-rule="evenodd" d="M55 71C55 68.2386 57.2386 66 60 66H124C126.761 66 129 68.2386 129 71C129 73.7614 126.761 76 124 76H60C57.2386 76 55 73.7614 55 71Z" fill="white"/>
<path fill-rule="evenodd" clip-rule="evenodd" d="M0 38C0 35.2386 2.23858 33 5 33H124C126.761 33 129 35.2386 129 38C129 40.7614 126.761 43 124 43H5C2.23858 43 0 40.7614 0 38Z" fill="white"/>
</svg>
